<svg xmlns="http://www.w3.org/2000/svg" viewBox="0 0 38 36.746">
  <defs>
    <style>
      .cls-1 {
        fill: #e3e3e3;
      }
    </style>
  </defs>
  <g id="Symbol_9_1" data-name="Symbol 9 – 1" transform="translate(0 0)">
    <path id="Path_224" data-name="Path 224" class="cls-1" d="M9.061,27.41a.75.75,0,0,0-.471-.258,6.562,6.562,0,0,0-.867-.038H7.138V28.8h.669a3.559,3.559,0,0,0,.95-.091.674.674,0,0,0,.365-.3.8.8,0,0,0,.144-.464A.779.779,0,0,0,9.061,27.41Zm6.043.616a1.549,1.549,0,0,0-.342-.585,1.213,1.213,0,0,0-.555-.289,5.845,5.845,0,0,0-.988-.046h-.532v3.945h.889a3.1,3.1,0,0,0,.722-.061.993.993,0,0,0,.486-.251,1.338,1.338,0,0,0,.319-.57,3.846,3.846,0,0,0,.122-1.095A3.373,3.373,0,0,0,15.1,28.026Zm0,0a1.549,1.549,0,0,0-.342-.585,1.213,1.213,0,0,0-.555-.289,5.845,5.845,0,0,0-.988-.046h-.532v3.945h.889a3.1,3.1,0,0,0,.722-.061.993.993,0,0,0,.486-.251,1.338,1.338,0,0,0,.319-.57,3.846,3.846,0,0,0,.122-1.095A3.373,3.373,0,0,0,15.1,28.026ZM9.061,27.41a.75.75,0,0,0-.471-.258,6.562,6.562,0,0,0-.867-.038H7.138V28.8h.669a3.559,3.559,0,0,0,.95-.091.674.674,0,0,0,.365-.3.8.8,0,0,0,.144-.464A.779.779,0,0,0,9.061,27.41ZM37.483,15.879l-7.13-7.069A1.842,1.842,0,0,0,29.091,8.3H12.474a4.159,4.159,0,0,0-4.158,4.158v8.909H1.779A1.776,1.776,0,0,0,0,23.146V35.019A1.776,1.776,0,0,0,1.779,36.8h6.53v4.09a4.159,4.159,0,0,0,4.158,4.158H33.842A4.159,4.159,0,0,0,38,40.888V17.133A1.734,1.734,0,0,0,37.483,15.879ZM28.506,12l4.584,4.538H28.506ZM10.3,28.862a1.5,1.5,0,0,1-.5.578,1.947,1.947,0,0,1-.631.289,6.483,6.483,0,0,1-1.247.084H7.138v2.242h-1.2V26.1H7.86a7.135,7.135,0,0,1,1.437.084,1.622,1.622,0,0,1,.851.585,1.9,1.9,0,0,1,.342,1.163A1.925,1.925,0,0,1,10.3,28.862ZM11.486,26.1h2.189a4.722,4.722,0,0,1,1.14.106,2.1,2.1,0,0,1,.889.555,2.545,2.545,0,0,1,.57.965,4.347,4.347,0,0,1,.205,1.4,4.1,4.1,0,0,1-.19,1.269,2.619,2.619,0,0,1-.631,1.049,2.005,2.005,0,0,1-.851.471,3.56,3.56,0,0,1-1.057.129H11.493V26.1ZM34.442,40.888a.675.675,0,0,1-.593.669H12.474a.67.67,0,0,1-.593-.669V36.806h13.66a1.776,1.776,0,0,0,1.779-1.779V23.146a1.776,1.776,0,0,0-1.779-1.779H11.874V12.458a.6.6,0,0,1,.593-.593H24.94v6.461a1.776,1.776,0,0,0,1.779,1.779h7.723ZM21.178,28.512v1.011H18.692v2.531h-1.2V26.1h4.082v1.011H18.684v1.4Zm-6.393,2.235a1.338,1.338,0,0,0,.319-.57,3.846,3.846,0,0,0,.122-1.095,3.4,3.4,0,0,0-.122-1.057,1.549,1.549,0,0,0-.342-.585,1.213,1.213,0,0,0-.555-.289,5.845,5.845,0,0,0-.988-.046h-.532v3.945h.889a3.1,3.1,0,0,0,.722-.061A.925.925,0,0,0,14.785,30.747Zm-6.2-3.6a6.562,6.562,0,0,0-.867-.038H7.138V28.8h.669a3.559,3.559,0,0,0,.95-.091.7.7,0,0,0,.365-.3.8.8,0,0,0,.144-.464.728.728,0,0,0-.205-.532A.708.708,0,0,0,8.59,27.152Zm.471.258a.75.75,0,0,0-.471-.258,6.562,6.562,0,0,0-.867-.038H7.138V28.8h.669a3.559,3.559,0,0,0,.95-.091.674.674,0,0,0,.365-.3.8.8,0,0,0,.144-.464A.779.779,0,0,0,9.061,27.41Zm0,0a.75.75,0,0,0-.471-.258,6.562,6.562,0,0,0-.867-.038H7.138V28.8h.669a3.559,3.559,0,0,0,.95-.091.674.674,0,0,0,.365-.3.8.8,0,0,0,.144-.464A.779.779,0,0,0,9.061,27.41Z" transform="translate(0 -8.3)"/>
  </g>
</svg>
