<svg xmlns="http://www.w3.org/2000/svg" viewBox="0 0 15.9 15.9">
  <defs>
    <style>
      .cls-1 {
        fill: #1d3854;
      }
    </style>
  </defs>
  <g id="Symbol_6_1" data-name="Symbol 6 – 1" transform="translate(-1959 -141.381)">
    <path id="Path_208" data-name="Path 208" class="cls-1" d="M15.9,14.5l-3.3-3.3A6.847,6.847,0,0,0,14,7,6.957,6.957,0,0,0,7,0,6.957,6.957,0,0,0,0,7a6.957,6.957,0,0,0,7,7,6.847,6.847,0,0,0,4.2-1.4l3.3,3.3ZM2,7A4.951,4.951,0,0,1,7,2a4.951,4.951,0,0,1,5,5,4.951,4.951,0,0,1-5,5A4.951,4.951,0,0,1,2,7Z" transform="translate(1959 141.381)"/>
  </g>
</svg>
