<svg xmlns="http://www.w3.org/2000/svg" viewBox="0 0 38 36.745">
  <defs>
    <style>
      .cls-1 {
        fill: #e3e3e3;
      }
    </style>
  </defs>
  <g id="file_xls" data-name="file xls" transform="translate(-1830.611 -155.999)">
    <path id="file_xls-2" data-name="file xls" class="cls-1" d="M37.483,15.879l-7.13-7.069A1.842,1.842,0,0,0,29.091,8.3H12.474a4.159,4.159,0,0,0-4.158,4.158v8.909H1.779A1.776,1.776,0,0,0,0,23.146V35.019A1.776,1.776,0,0,0,1.779,36.8h6.53v4.09a4.159,4.159,0,0,0,4.158,4.158H33.842A4.159,4.159,0,0,0,38,40.888V17.133A1.734,1.734,0,0,0,37.483,15.879ZM28.506,12l4.584,4.538H28.506ZM9.707,32.176,8.392,30.109l-1.33,2.068H5.617l2.03-3.109-1.84-2.843H7.214l1.2,1.916,1.163-1.916h1.391L9.114,29.113l2.045,3.063H9.707ZM11.8,26.27h1.216v4.9h2.98v1.011H11.8V26.27ZM34.442,40.888a.6.6,0,0,1-.593.593H12.474a.6.6,0,0,1-.593-.593V36.806h13.66a1.776,1.776,0,0,0,1.779-1.779V23.146a1.776,1.776,0,0,0-1.779-1.779H11.874V12.458a.6.6,0,0,1,.593-.593H24.94v6.461a1.776,1.776,0,0,0,1.779,1.779h7.723Zm-14.39-10.8a.907.907,0,0,0-.426-.258c-.144-.046-.464-.129-.965-.258a3.24,3.24,0,0,1-1.353-.585,1.552,1.552,0,0,1-.547-1.2,1.529,1.529,0,0,1,.251-.851,1.748,1.748,0,0,1,.745-.608,3.146,3.146,0,0,1,1.178-.205,2.582,2.582,0,0,1,1.688.486,1.824,1.824,0,0,1,.593,1.315L20,27.965a.956.956,0,0,0-.319-.654,1.181,1.181,0,0,0-.775-.205,1.3,1.3,0,0,0-.806.213.437.437,0,0,0-.205.365.453.453,0,0,0,.175.357,3.276,3.276,0,0,0,1.1.4,6.085,6.085,0,0,1,1.307.426,1.578,1.578,0,0,1,.654.608,1.814,1.814,0,0,1,.236.95,1.68,1.68,0,0,1-.289.95,1.621,1.621,0,0,1-.806.661,3.334,3.334,0,0,1-1.292.228,2.58,2.58,0,0,1-1.733-.525,2.285,2.285,0,0,1-.715-1.52L17.7,30.1a1.441,1.441,0,0,0,.426.867,1.343,1.343,0,0,0,.867.274,1.313,1.313,0,0,0,.882-.251.693.693,0,0,0,.3-.57A.451.451,0,0,0,20.053,30.086Z" transform="translate(1830.611 147.699)"/>
  </g>
</svg>
